<svg xmlns="http://www.w3.org/2000/svg" viewBox="0 0 231.8 64" width="695" height="192"><title>Mailway</title><defs><linearGradient id="fondo" x1="0" y1="0" x2=".85" y2="1"><stop offset="0" stop-color="#2fa59a"/><stop offset=".52" stop-color="#0f6567"/><stop offset="1" stop-color="#073c3f"/></linearGradient><radialGradient id="luz" cx=".28" cy="-.05" r=".85"><stop offset="0" stop-color="#fff" stop-opacity=".2"/><stop offset="1" stop-color="#fff" stop-opacity="0"/></radialGradient><linearGradient id="sobre" x1="0" y1="0" x2="0" y2="1"><stop offset="0" stop-color="#fff"/><stop offset="1" stop-color="#e2f3ef"/></linearGradient><linearGradient id="solapa" x1="0" y1="0" x2="0" y2="1"><stop offset="0" stop-color="#cbe9e2"/><stop offset="1" stop-color="#9dd2c7"/></linearGradient><filter id="sombra" x="-20%" y="-20%" width="140%" height="150%"><feGaussianBlur in="SourceAlpha" stdDeviation="1.6"/><feOffset dy="1.6"/><feComponentTransfer><feFuncA type="linear" slope=".28"/></feComponentTransfer><feFlood flood-color="#03292b"/><feComposite operator="in" in2="SourceAlpha"/><feMerge><feMergeNode/><feMergeNode in="SourceGraphic"/></feMerge></filter></defs><rect width="64" height="64" rx="16" fill="url(#fondo)"/><rect width="64" height="64" rx="16" fill="url(#luz)"/><g filter="url(#sombra)"><path d="M11 22a4.6 4.6 0 0 1 7.6-3.5L28.86 28.07A4.6 4.6 0 0 0 35.14 28.07L45.4 18.5A4.6 4.6 0 0 1 53 22v21a4.5 4.5 0 0 1-4.5 4.5h-33A4.5 4.5 0 0 1 11 43z" fill="url(#sobre)"/><path d="M11.2 20.6 28.6 36.2a5.1 5.1 0 0 0 6.8 0L52.8 20.6l.2 1.4v1.8L36 39.4a6 6 0 0 1-8 0L11 23.8V22z" fill="#0b5355" opacity=".09"/><path d="M12.2 45.9 28.4 35.4a6.6 6.6 0 0 1 7.2 0l16.2 10.5A4.5 4.5 0 0 1 48.5 47.5h-33a4.5 4.5 0 0 1-3.3-1.6z" fill="url(#solapa)"/></g><path transform="translate(80 46.25) scale(1.0135)" fill="#171f1e" d="M2.88 0V-28.12H6.72L18.12 -9.88H15.92L27.28 -28.12H31.12V0H25.72V-18.8L26.76 -18.48L18.84 -5.76H15.16L7.24 -18.48L8.32 -18.8V0ZM44 0.4Q41.36 0.4 39.24 -0.92Q37.12 -2.24 35.92 -4.52Q34.72 -6.8 34.72 -9.64Q34.72 -12.52 35.92 -14.8Q37.12 -17.08 39.24 -18.4Q41.36 -19.72 44 -19.72Q46.08 -19.72 47.72 -18.88Q49.36 -18.04 50.34 -16.54Q51.32 -15.04 51.4 -13.16V-6.2Q51.32 -4.28 50.34 -2.8Q49.36 -1.32 47.72 -0.46Q46.08 0.4 44 0.4ZM44.96 -4.44Q47.16 -4.44 48.52 -5.9Q49.88 -7.36 49.88 -9.68Q49.88 -11.2 49.26 -12.38Q48.64 -13.56 47.54 -14.22Q46.44 -14.88 44.96 -14.88Q43.52 -14.88 42.42 -14.22Q41.32 -13.56 40.7 -12.38Q40.08 -11.2 40.08 -9.68Q40.08 -8.12 40.7 -6.94Q41.32 -5.76 42.42 -5.1Q43.52 -4.44 44.96 -4.44ZM49.6 0V-5.2L50.44 -9.92L49.6 -14.56V-19.32H54.8V0ZM59.04 0V-19.32H64.32V0ZM61.68 -22.44Q60.4 -22.44 59.56 -23.3Q58.72 -24.16 58.72 -25.44Q58.72 -26.68 59.56 -27.56Q60.4 -28.44 61.68 -28.44Q63 -28.44 63.82 -27.56Q64.64 -26.68 64.64 -25.44Q64.64 -24.16 63.82 -23.3Q63 -22.44 61.68 -22.44ZM68.56 0V-28.92H73.8V0ZM83.2 0 75.96 -19.32H81.24L85.96 -5.28L84.36 -5.24L89.2 -19.32H93L97.84 -5.24L96.24 -5.28L100.96 -19.32H106.24L99.04 0H95.24L90.36 -13.36H91.84L86.96 0ZM116.04 0.4Q113.4 0.4 111.28 -0.92Q109.16 -2.24 107.96 -4.52Q106.76 -6.8 106.76 -9.64Q106.76 -12.52 107.96 -14.8Q109.16 -17.08 111.28 -18.4Q113.4 -19.72 116.04 -19.72Q118.12 -19.72 119.76 -18.88Q121.4 -18.04 122.38 -16.54Q123.36 -15.04 123.44 -13.16V-6.2Q123.36 -4.28 122.38 -2.8Q121.4 -1.32 119.76 -0.46Q118.12 0.4 116.04 0.4ZM117 -4.44Q119.2 -4.44 120.56 -5.9Q121.92 -7.36 121.92 -9.68Q121.92 -11.2 121.3 -12.38Q120.68 -13.56 119.58 -14.22Q118.48 -14.88 117 -14.88Q115.56 -14.88 114.46 -14.22Q113.36 -13.56 112.74 -12.38Q112.12 -11.2 112.12 -9.68Q112.12 -8.12 112.74 -6.94Q113.36 -5.76 114.46 -5.1Q115.56 -4.44 117 -4.44ZM121.64 0V-5.2L122.48 -9.92L121.64 -14.56V-19.32H126.84V0ZM137.16 0.16 129.08 -19.32H134.76L140.12 -4.44H138.2L143.76 -19.32H149.48L140.88 0.16ZM131.8 8.08 137.68 -4.36 140.88 0.16 137.36 8.08Z"/></svg>
